Coordinates
version=1
nRows=29
nColumns=24
inDegrees=yes

Units are S.I. units (second, meters, Newtons, ...)
Angles are in degrees.

endheader
time	pelvis_tilt	pelvis_list	pelvis_rotation	pelvis_tx	pelvis_ty	pelvis_tz	hip_flexion_r	hip_adduction_r	hip_rotation_r	knee_angle_r	ankle_angle_r	subtalar_angle_r	mtp_angle_r	hip_flexion_l	hip_adduction_l	hip_rotation_l	knee_angle_l	ankle_angle_l	subtalar_angle_l	mtp_angle_l	lumbar_extension	lumbar_bending	lumbar_rotation
      4.56500000	     -6.99117454	     11.97502404	     -4.38384090	     -2.30027988	     -0.01925496	     -0.32467145	     17.00594861	    -17.94794696	     -3.66120128	    -63.74392386	    -23.49262686	    -11.46098204	     20.81079847	     17.26465121	     16.12232090	     -6.75686381	    -12.11332033	      2.00198687	     -8.38347084	     -3.20182195	      1.02928982	    -13.18676920	      3.76687181
      4.57000000	     -6.95310032	     11.63923123	     -4.38955821	     -2.29380121	     -0.01797970	     -0.32516232	     17.86611685	    -17.44919263	     -3.46089366	    -64.13659124	    -22.39608497	    -11.64717230	     21.05611940	     16.56796864	     15.88602749	     -6.43392661	    -11.83788034	      2.27429445	     -8.34984274	     -3.29866483	      0.92127424	    -12.77541404	      3.58301079
      4.57500000	     -6.92390325	     11.43976175	     -4.39543165	     -2.28733736	     -0.01688345	     -0.32576770	     18.79393092	    -17.11302258	     -3.21829663	    -64.58132757	    -21.06498846	    -11.53587371	     20.60952871	     15.89435274	     15.82532592	     -5.88033834	    -11.59382235	      2.86461815	     -8.46483649	     -5.50094817	      0.83342853	    -12.49133929	      3.37744239
      4.58000000	     -6.88513986	     11.10896705	     -4.37206462	     -2.28084844	     -0.01571402	     -0.32623585	     19.62108028	    -16.59866031	     -3.05378963	    -64.84268896	    -20.18957548	    -11.78397016	     20.79738090	     15.19864951	     15.58681006	     -5.56304099	    -11.32969627	      3.18389704	     -8.34042150	     -5.53400287	      0.73079839	    -12.08936838	      3.17538847
      4.58500000	     -6.73690795	     10.86800535	     -4.34397422	     -2.27434014	     -0.01451446	     -0.32678696	     20.33610748	    -16.22051724	     -2.92583675	    -65.10912070	    -18.94368912	    -11.69252785	     20.02650851	     14.35793721	     15.48953040	     -4.98497972	    -11.04399748	      3.81263821	     -8.36872830	     -7.85604199	      0.52245141	    -11.79001995	      2.95231678
      4.59000000	     -6.73132679	     10.57509310	     -4.32068749	     -2.26791491	     -0.01348006	     -0.32722650	     21.19690727	    -15.72378562	     -2.75536955	    -65.25702407	    -18.16646065	    -11.92157802	     20.18422039	     13.68831172	     15.27799873	     -4.71962072	    -10.72674762	      4.07201685	     -8.26312040	     -7.88837561	      0.46185084	    -11.43236391	      2.73557602
      4.59500000	     -6.63456028	     10.32662103	     -4.22439256	     -2.26141898	     -0.01241190	     -0.32781241	     21.90040802	    -15.33754799	     -2.67516750	    -65.34478414	    -17.10289299	    -11.79935346	     20.14346247	     12.87419972	     15.15258101	     -4.33357362	    -10.34584514	      4.34446436	     -8.20858224	     -8.38611169	      0.30487095	    -11.13011482	      2.46679778
      4.60000000	     -6.61722883	     10.04856256	     -4.23162216	     -2.25506693	     -0.01143102	     -0.32821735	     22.73530665	    -14.83250931	     -2.50090986	    -65.35005151	    -16.37246463	    -12.03737040	     20.20169209	     12.15245750	     14.94866190	     -4.09143504	     -9.91938451	      4.53473978	     -8.16966683	     -8.50124979	      0.23643058	    -10.78772764	      2.30873401
      4.60500000	     -6.36479138	      9.80308525	     -4.17887034	     -2.24862585	     -0.01022927	     -0.32872707	     23.25130875	    -14.44875224	     -2.50630313	    -65.31772895	    -15.14132882	    -11.97483654	     18.76110704	     11.08516760	     14.84043878	     -3.45915537	     -9.39846994	      5.01245248	     -8.25966382	    -10.68164404	     -0.08184767	    -10.50375328	      2.10641222
      4.61000000	     -6.40132680	      9.54636243	     -4.13205380	     -2.24229226	     -0.00936809	     -0.32919312	     24.08938023	    -13.98080051	     -2.38175585	    -65.17517285	    -14.32279428	    -11.99875732	     18.93454646	     10.38549011	     14.64979769	     -3.32331026	     -8.89167833	      5.17257283	     -8.07473979	    -10.73175611	     -0.09289389	    -10.18737304	      1.88522827
      4.61500000	     -6.27292433	      9.32596356	     -4.06127561	     -2.23593804	     -0.00843001	     -0.32973289	     24.70194348	    -13.61345310	     -2.33527924	    -64.95814807	    -13.28499208	    -11.79295608	     19.02720358	      9.46072182	     14.52426259	     -3.12364872	     -8.30394901	      5.33172858	     -7.90669803	    -10.91919974	     -0.28056129	     -9.91921817	      1.67590560
      4.62000000	     -6.13364866	      9.04930463	     -4.01097633	     -2.22966305	     -0.00745190	     -0.33021230	     25.27157392	    -13.16328045	     -2.31782370	    -64.63399336	    -12.32484818	    -11.71360558	     18.87463955	      8.50177806	     14.33031913	     -2.88717180	     -7.66594158	      5.43068369	     -7.82004748	    -11.19116726	     -0.49242919	     -9.59680282	      1.44434255
      4.62500000	     -6.07842795	      8.78146100	     -3.93221275	     -2.22337895	     -0.00662154	     -0.33073164	     25.90942482	    -12.73644138	     -2.33963046	    -64.23952676	    -11.37770887	    -11.58292490	     18.79221479	      7.62523752	     14.13277000	     -2.68715956	     -7.01018974	      5.53431553	     -7.63918658	    -11.31596028	     -0.60768771	     -9.27669882	      1.27441825
      4.63000000	     -5.96570276	      8.47127005	     -3.87552706	     -2.21715186	     -0.00574719	     -0.33118640	     26.45165520	    -12.25897624	     -2.41917365	    -63.76002137	    -10.36020031	    -11.50288036	     18.04497269	      6.67136892	     13.88699494	     -2.46813933	     -6.31805238	      5.59972140	     -7.53644542	    -11.51907624	     -0.79370837	     -8.91972427	      1.10117296
      4.63500000	     -5.99181224	      8.21317062	     -3.77342618	     -2.21098814	     -0.00512189	     -0.33171024	     27.13427748	    -11.85066187	     -2.47520972	    -63.21226561	     -9.43350980	    -11.27963762	     18.08796370	      5.90241874	     13.68165492	     -2.35922286	     -5.67146063	      5.68084795	     -7.27755469	    -11.50829809	     -0.83719423	     -8.60895563	      0.89880390
      4.64000000	     -5.93341178	      7.91281409	     -3.67684054	     -2.20483646	     -0.00442277	     -0.33221411	     27.66958118	    -11.41260992	     -2.59685113	    -62.54610933	     -8.54539870	    -11.10219142	     17.95812938	      5.02618887	     13.43350072	     -2.23692249	     -4.99576319	      5.72201105	     -7.05507055	    -11.45865376	     -0.97604570	     -8.26057986	      0.69710253
      4.64500000	     -6.03263386	      7.62645995	     -3.61315532	     -2.19876443	     -0.00397553	     -0.33263717	     28.38582551	    -10.94461755	     -2.67644461	    -61.81235746	     -7.82450553	    -11.06043651	     17.96481479	      4.35868619	     13.17910823	     -2.17068219	     -4.36260139	      5.78125985	     -6.87561212	    -11.43487603	     -0.94604146	     -7.92126057	      0.53880193
      4.65000000	     -5.83376345	      7.27367140	     -3.51318864	     -2.19263656	     -0.00319244	     -0.33306197	     28.67364262	    -10.47156106	     -2.91719811	    -60.96392508	     -6.85370280	    -10.87854388	     16.82185038	      3.32361407	     12.86913068	     -2.05237653	     -3.67092948	      5.73102321	     -6.64673942	    -11.08192265	     -1.24233914	     -7.53283353	      0.35121819
      4.65500000	     -5.92958726	      7.02646904	     -3.35943557	     -2.18658741	     -0.00288102	     -0.33352651	     29.31916533	    -10.10708007	     -3.11805503	    -60.13614494	     -5.85036452	    -10.51298697	     15.69569668	      2.68713280	     12.65178762	     -2.04667405	     -3.09380745	      5.69248233	     -6.34004423	    -10.45961741	     -1.22774875	     -7.24464372	      0.09786166
      4.66000000	     -5.99564759	      6.76717758	     -3.21999087	     -2.18055433	     -0.00255743	     -0.33396048	     29.87438050	     -9.72514530	     -3.30641743	    -59.13055475	     -5.25350641	    -10.37995228	     15.76475740	      2.02893568	     12.41892658	     -1.98244511	     -2.54534470	      5.75180569	     -6.06470881	    -10.41105518	     -1.24413118	     -6.94672403	     -0.08414052
      4.66500000	     -6.09607460	      6.52630510	     -3.11208249	     -2.17450117	     -0.00237023	     -0.33436204	     30.45365523	     -9.34616501	     -3.47644909	    -58.05825296	     -4.73238625	    -10.27631217	     15.80000574	      1.42857800	     12.20518437	     -1.96071212	     -2.02476138	      5.83248677	     -5.83892140	    -10.37950003	     -1.21342047	     -6.65956755	     -0.27601676
      4.67000000	     -6.03599612	      6.25965311	     -2.90564818	     -2.16845610	     -0.00198484	     -0.33484430	     30.76623744	     -9.02508675	     -3.80762046	    -56.85770425	     -4.23331575	    -10.14266521	     15.71365937	      0.66669680	     11.97205790	     -1.94988708	     -1.54558247	      5.90682767	     -5.45883110	    -10.29797139	     -1.37425957	     -6.36519881	     -0.56974750
      4.67500000	     -6.07121563	      6.03438448	     -2.74692983	     -2.16239642	     -0.00181640	     -0.33521921	     31.18509336	     -8.70085724	     -4.06343081	    -55.60872214	     -3.78762451	    -10.01331125	     15.61950295	      0.03666672	     11.77103476	     -1.95114560	     -1.10611407	      5.99750071	     -5.14964552	    -10.22821453	     -1.41754331	     -6.11135497	     -0.79361480
      4.68000000	     -6.21301139	      5.87127037	     -2.63291422	     -2.15636635	     -0.00186638	     -0.33550786	     31.72735943	     -8.39305947	     -4.21814924	    -54.31261980	     -3.40057444	     -9.86748391	     15.62618231	     -0.43863624	     11.63241020	     -1.97758762	     -0.71387951	      6.05127600	     -4.96475088	    -10.21949105	     -1.34209456	     -5.91941651	     -0.98184842
      4.68500000	     -6.30599729	      5.68856912	     -2.45646916	     -2.15026784	     -0.00190143	     -0.33586004	     32.14737327	     -8.11956470	     -4.48266010	    -52.92021273	     -3.03077413	     -9.67260618	     15.63293184	     -0.95529033	     11.47313014	     -1.96453857	     -0.37051052	      6.16088533	     -4.70722585	    -10.20022284	     -1.31595548	     -5.71005320	     -1.22453794
      4.69000000	     -6.19680512	      5.49322957	     -2.20950856	     -2.14417373	     -0.00176403	     -0.33622179	     32.27318753	     -7.89202812	     -4.86753050	    -51.42284694	     -2.67872163	     -9.51581869	     15.58570572	     -1.68010869	     11.30163511	     -1.95451484	     -0.06848438	      6.34265980	     -4.30381730	    -10.17598293	     -1.51753472	     -5.50877255	     -1.58968118
      4.69500000	     -6.26985894	      5.35588252	     -2.01246962	     -2.13803753	     -0.00192428	     -0.33651459	     32.60835517	     -7.67027080	     -5.13535779	    -49.89817631	     -2.36447530	     -9.27779647	     15.60535891	     -2.17997641	     11.18331330	     -1.91692466	      0.19861458	      6.47526697	     -4.05979357	    -10.18223471	     -1.50436141	     -5.35395444	     -1.81663495
      4.70000000	     -6.33925712	      5.23387524	     -1.82644708	     -2.13188931	     -0.00216184	     -0.33670167	     32.91220561	     -7.45205890	     -5.39813147	    -48.31137984	     -2.06184578	     -9.01156202	     15.65128994	     -2.65827603	     11.07356147	     -1.87643763	      0.41728595	      6.62543266	     -3.84797022	    -10.19197313	     -1.49445179	     -5.23434036	     -2.06825838
      4.70500000	     -6.32344112	      5.11411552	     -1.58825184	     -2.12572314	     -0.00232138	     -0.33698126	     33.07138282	     -7.28194176	     -5.72814364	    -46.64648346	     -1.82483608	     -8.70434896	     15.71882236	     -3.20975358	     10.97175512	     -1.85070612	      0.59393366	      6.77149751	     -3.58874388	    -10.22966502	     -1.58162680	     -5.11109391	     -2.41837212
